<svg height="18px" width="18px" xmlns="http://www.w3.org/2000/svg" viewBox="0 0 48 48" fill="#000000">
 <path d="m0 0h48v48h-48z" fill="none"/>
 <path d="m41.56 26.32l-12.11-6.03c-0.45-0.18-0.93-0.29-1.45-0.29h-2v-4h3.5c3.31 0 6-2.69 6-6s-2.69-6-6-6c-1.5 0-2.28 0.44-3.5 1.5v-1.5c0-2.21-1.79-4-4-4s-4 1.79-4 4v1.5c-1.22-1.06-2-1.5-3.5-1.5-3.31 0-6 2.69-6 6s2.69 6 6 6h3.5v16.63l-9.14-1.91c-0.2-0.04-0.41-0.07-0.63-0.07-0.83 0-1.58 0.34-2.12 0.88l-2.11 2.13 13.17 13.17c0.73 0.72 1.73 1.17 2.83 1.17h18.12c2.01 0 3.55-1.48 3.83-3.41l2.01-14.05c0.03-0.18 0.04-0.36 0.04-0.54 0-1.66-1.01-3.08-2.44-3.68zm-23.06-12.32h-4c-2.21 0-4-1.79-4-4s1.79-4 4-4 4 1.79 4 4v4zm7-4c0-2.21 1.79-4 4-4s4 1.79 4 4-1.79 4-4 4h-4v-4z"/>
</svg>
